<svg width="152" height="53" viewBox="0 0 152 53" fill="none" xmlns="http://www.w3.org/2000/svg">
<rect width="151" height="52" transform="translate(0.171875 0.686768)" fill="white"/>
<path fill-rule="evenodd" clip-rule="evenodd" d="M26.0759 50.1435C39.0898 50.1435 49.6392 39.5959 49.6392 26.5852C49.6392 13.5744 39.0898 3.02682 26.0759 3.02682C13.0621 3.02682 2.51266 13.5744 2.51266 26.5852C2.51266 39.5959 13.0621 50.1435 26.0759 50.1435ZM26.0759 51.1835C39.6639 51.1835 50.6792 40.1705 50.6792 26.5852C50.6792 12.9999 39.6639 1.98682 26.0759 1.98682C12.4879 1.98682 1.47266 12.9999 1.47266 26.5852C1.47266 40.1705 12.4879 51.1835 26.0759 51.1835Z" fill="url(#paint0_linear_51_111)"/>
<path fill-rule="evenodd" clip-rule="evenodd" d="M26.0764 2.15454L4.82812 38.8919H47.3247L26.0764 2.15454ZM26.0764 4.23176L6.63107 37.8519H45.5217L26.0764 4.23176Z" fill="#623B1E"/>
<path fill-rule="evenodd" clip-rule="evenodd" d="M15.7724 26.6869C15.7724 32.2812 20.3645 36.8269 26.0424 36.8269C31.7203 36.8269 36.3124 32.2812 36.3124 26.6869C36.3124 21.0927 31.7203 16.5469 26.0424 16.5469C20.3645 16.5469 15.7724 21.0927 15.7724 26.6869ZM26.0424 37.8669C19.802 37.8669 14.7324 32.8674 14.7324 26.6869C14.7324 20.5065 19.802 15.5069 26.0424 15.5069C32.2828 15.5069 37.3524 20.5065 37.3524 26.6869C37.3524 32.8674 32.2828 37.8669 26.0424 37.8669Z" fill="#623B1E"/>
<path d="M25.6918 16.0269C28.45 16.0269 32.0953 17.15 34.0457 19.1492C35.9961 21.1483 37.0918 23.8597 37.0918 26.6869C37.0918 29.5141 35.9961 32.2255 34.0457 34.2247C32.0953 36.2238 28.45 37.3469 25.6918 37.3469C27.5174 36.2666 29.0334 34.7127 30.0874 32.8415C31.1414 30.9703 31.6962 28.8476 31.6962 26.6869C31.6962 24.5262 31.1414 22.4036 30.0874 20.5324C29.0334 18.6611 27.5174 17.1073 25.6918 16.0269Z" fill="#623B1E"/>
<path fill-rule="evenodd" clip-rule="evenodd" d="M26.0186 51.1834L26.0186 38.7166L27.0586 38.7166L27.0586 51.1834L26.0186 51.1834Z" fill="#623B1E"/>
<path fill-rule="evenodd" clip-rule="evenodd" d="M31.1646 50.4008L27.7325 37.3467L28.7383 37.0823L32.1705 50.1363L31.1646 50.4008Z" fill="#623B1E"/>
<path fill-rule="evenodd" clip-rule="evenodd" d="M36.8137 48.6809L30.7973 36.5951L29.8662 37.0584L35.8826 49.1442L36.8137 48.6809Z" fill="#623B1E"/>
<path fill-rule="evenodd" clip-rule="evenodd" d="M40.3348 46.5434L31.6329 36.0468L32.4336 35.3831L41.1354 45.8796L40.3348 46.5434Z" fill="#623B1E"/>
<path fill-rule="evenodd" clip-rule="evenodd" d="M21.8236 50.4008L25.2558 37.3467L24.25 37.0823L20.8178 50.1363L21.8236 50.4008Z" fill="#623B1E"/>
<path fill-rule="evenodd" clip-rule="evenodd" d="M16.1746 48.6809L22.191 36.5951L23.1221 37.0584L17.1057 49.1442L16.1746 48.6809Z" fill="#623B1E"/>
<path fill-rule="evenodd" clip-rule="evenodd" d="M12.653 46.5433L21.0953 36.3067L20.293 35.645L11.8507 45.8816L12.653 46.5433Z" fill="#623B1E"/>
<path d="M59.6989 31.3838C59.2442 31.1151 58.9549 30.8258 58.8309 30.5158C58.7069 30.2264 58.6449 29.9784 58.6449 29.7718C58.6449 29.1931 58.8515 28.4078 59.2649 27.4158C59.6989 26.4238 60.2672 25.2974 60.9699 24.0368C61.6932 22.7554 62.4889 21.4328 63.3569 20.0688C62.5922 20.0068 61.9412 19.9654 61.4039 19.9448C60.8665 19.9241 60.4015 19.9138 60.0089 19.9138H58.9239C59.1512 19.3144 59.5439 18.9011 60.1019 18.6738C60.6805 18.4258 61.3625 18.3018 62.1479 18.3018C62.4992 18.3018 62.8609 18.3224 63.2329 18.3638C63.6049 18.4051 63.9872 18.4568 64.3799 18.5188C65.4339 16.9274 66.5085 15.3878 67.6039 13.8998C68.7199 12.3911 69.7532 11.0581 70.7039 9.90077C71.6752 8.72277 72.4812 7.8341 73.1219 7.23477C73.7212 6.6561 74.2172 6.36677 74.6099 6.36677C74.8372 6.36677 75.0852 6.45977 75.3539 6.64577C75.6432 6.8111 75.9429 7.04877 76.2529 7.35877C76.0462 7.5241 75.7775 7.96843 75.4469 8.69177C75.1369 9.39443 74.7959 10.2831 74.4239 11.3578C74.0725 12.4324 73.7212 13.6104 73.3699 14.8918C73.0185 16.1731 72.6879 17.4854 72.3779 18.8288C72.0885 20.1514 71.8509 21.4121 71.6649 22.6108C71.4995 23.8094 71.4169 24.8634 71.4169 25.7728C71.4169 26.5581 71.4995 27.1678 71.6649 27.6018C71.8509 28.0358 72.1505 28.2528 72.5639 28.2528C73.1012 28.2528 73.7109 27.8808 74.3929 27.1368C75.0749 26.3928 75.8189 25.2354 76.6249 23.6648L76.9349 23.9748C76.3149 25.6281 75.5192 26.9818 74.5479 28.0358C73.5972 29.0898 72.6052 29.6168 71.5719 29.6168C70.7245 29.6168 70.1045 29.2448 69.7119 28.5008C69.3399 27.7361 69.1539 26.7234 69.1539 25.4628C69.1539 24.8014 69.1952 24.0781 69.2779 23.2928C69.3812 22.5074 69.5155 21.6911 69.6809 20.8438C68.7715 20.6991 67.9345 20.5854 67.1699 20.5028C66.4259 20.3994 65.7335 20.3064 65.0929 20.2238C64.1215 22.0218 63.1709 23.8714 62.2409 25.7728C61.3315 27.6741 60.4842 29.5444 59.6989 31.3838ZM69.8979 19.7588C70.2079 18.3948 70.5695 17.0204 70.9829 15.6358C71.3962 14.2304 71.8302 12.8974 72.2849 11.6368C72.7602 10.3761 73.2045 9.27043 73.6179 8.31977C72.9772 8.71243 72.2332 9.4151 71.3859 10.4278C70.5592 11.4198 69.6809 12.6391 68.7509 14.0858C67.8209 15.5118 66.8702 17.0824 65.8989 18.7978C66.6015 18.9424 67.2939 19.1078 67.9759 19.2938C68.6785 19.4591 69.3192 19.6141 69.8979 19.7588ZM78.8869 30.9498C77.8122 30.9498 77.0062 30.5984 76.4689 29.8958C75.9522 29.1931 75.6939 28.2424 75.6939 27.0438C75.6939 26.0104 75.8696 24.7911 76.2209 23.3858C76.5722 21.9804 77.0372 20.5131 77.6159 18.9838C78.1946 17.4338 78.8352 15.9251 79.5379 14.4578C80.2612 12.9904 80.9846 11.6678 81.7079 10.4898C82.4312 9.2911 83.1132 8.34043 83.7539 7.63777C84.3946 6.91443 84.9216 6.55277 85.3349 6.55277C85.6862 6.55277 85.9342 6.76977 86.0789 7.20377C86.2442 7.63777 86.3269 8.07177 86.3269 8.50577C86.3269 9.08443 86.2029 9.7871 85.9549 10.6138C85.7069 11.4404 85.3556 12.3291 84.9009 13.2798C84.4462 14.2098 83.9192 15.1294 83.3199 16.0388C82.7206 16.9481 82.0696 17.7851 81.3669 18.5498C80.6849 19.2938 79.9822 19.8828 79.2589 20.3168C79.1349 20.5441 78.9489 21.0194 78.7009 21.7428C78.4736 22.4454 78.2566 23.2618 78.0499 24.1918C77.8639 25.1011 77.7709 25.9898 77.7709 26.8578C77.7709 27.7051 77.8949 28.3974 78.1429 28.9348C78.4116 29.4928 78.8559 29.7718 79.4759 29.7718C80.0752 29.7718 80.6952 29.5238 81.3359 29.0278C81.9766 28.5524 82.4932 27.9324 82.8859 27.1678C82.1212 26.7751 81.5529 26.2068 81.1809 25.4628C80.8089 24.6981 80.6229 23.9334 80.6229 23.1688C80.6229 22.1768 80.8812 21.3811 81.3979 20.7818C81.9146 20.1824 82.5242 19.8828 83.2269 19.8828C83.8262 19.8828 84.3016 20.1308 84.6529 20.6268C85.0042 21.1021 85.1799 21.8048 85.1799 22.7348C85.1799 23.4168 85.0869 24.1194 84.9009 24.8428C84.7149 25.5661 84.4462 26.2688 84.0949 26.9508C84.2189 26.9714 84.3429 26.9921 84.4669 27.0128C84.6116 27.0334 84.7562 27.0438 84.9009 27.0438C85.6449 27.0438 86.2649 26.8681 86.7609 26.5168C87.2569 26.1448 87.6702 25.7004 88.0009 25.1838C88.3522 24.6464 88.6416 24.1401 88.8689 23.6648L89.2409 24.0678C88.6622 25.4938 87.9699 26.4444 87.1639 26.9198C86.3786 27.3744 85.5932 27.6018 84.8079 27.6018C84.6426 27.6018 84.4772 27.5914 84.3119 27.5708C84.1466 27.5501 83.9812 27.5294 83.8159 27.5088C83.2579 28.4594 82.5656 29.2654 81.7389 29.9268C80.9329 30.6088 79.9822 30.9498 78.8869 30.9498ZM83.1959 26.5478C83.4232 26.0724 83.5989 25.5764 83.7229 25.0598C83.8469 24.5224 83.9089 23.9748 83.9089 23.4168C83.9089 22.6934 83.8056 22.1251 83.5989 21.7118C83.4129 21.2984 83.1752 21.0918 82.8859 21.0918C82.5759 21.0918 82.2969 21.3088 82.0489 21.7428C81.8216 22.1561 81.7079 22.6831 81.7079 23.3238C81.7079 23.8818 81.8216 24.4708 82.0489 25.0908C82.2762 25.7108 82.6586 26.1964 83.1959 26.5478ZM79.5999 19.1078C80.1786 18.6531 80.7366 18.0744 81.2739 17.3718C81.8319 16.6691 82.3486 15.9251 82.8239 15.1398C83.2992 14.3338 83.7229 13.5484 84.0949 12.7838C84.4669 12.0191 84.7562 11.3268 84.9629 10.7068C85.1696 10.0868 85.2729 9.62177 85.2729 9.31177C85.2729 9.20843 85.2626 9.14643 85.2419 9.12577C85.2212 9.08443 85.1902 9.06377 85.1489 9.06377C84.9836 9.06377 84.6632 9.36343 84.1879 9.96277C83.7332 10.5414 83.2166 11.3268 82.6379 12.3188C82.0799 13.2901 81.5219 14.3751 80.9639 15.5738C80.4059 16.7518 79.9512 17.9298 79.5999 19.1078ZM90.4361 29.4928C89.6301 29.4928 89.0308 29.2344 88.6381 28.7178C88.2454 28.2218 88.0491 27.6121 88.0491 26.8888C88.0491 26.4134 88.1318 25.8141 88.2971 25.0908C88.4831 24.3674 88.7208 23.6131 89.0101 22.8278C89.2994 22.0218 89.6301 21.2674 90.0021 20.5648C90.3948 19.8621 90.8081 19.2938 91.2421 18.8598C91.6761 18.4051 92.0998 18.1778 92.5131 18.1778C92.6991 18.1778 92.8541 18.2398 92.9781 18.3638C93.1228 18.4671 93.1951 18.6324 93.1951 18.8598C93.1951 19.1078 93.0298 19.5108 92.6991 20.0688C92.3891 20.6268 92.0171 21.2674 91.5831 21.9908C91.1491 22.7141 90.7668 23.4788 90.4361 24.2848C90.1261 25.0701 89.9711 25.8244 89.9711 26.5478C89.9711 27.2918 90.0951 27.7878 90.3431 28.0358C90.5911 28.2838 90.9734 28.4078 91.4901 28.4078C92.1928 28.4078 92.9368 28.0564 93.7221 27.3538C94.5281 26.6511 95.3754 25.4214 96.2641 23.6648L96.5431 23.9748C95.9438 25.7521 95.0758 27.1161 93.9391 28.0668C92.8231 29.0174 91.6554 29.4928 90.4361 29.4928ZM94.1561 15.2948C93.8254 15.2948 93.5258 15.2121 93.2571 15.0468C93.0091 14.8814 92.8851 14.6231 92.8851 14.2718C92.8851 13.8378 93.1331 13.4658 93.6291 13.1558C94.1458 12.8251 94.6521 12.6598 95.1481 12.6598C95.4581 12.6598 95.7061 12.7321 95.8921 12.8768C96.0781 13.0214 96.1711 13.2694 96.1711 13.6208C96.1711 14.0134 95.9541 14.3958 95.5201 14.7678C95.1068 15.1191 94.6521 15.2948 94.1561 15.2948ZM96.8596 37.3668C96.405 37.3668 95.9916 37.2221 95.6196 36.9328C95.2476 36.6641 95.0616 36.2094 95.0616 35.5688C95.0616 34.9488 95.258 34.3701 95.6506 33.8328C96.0226 33.3161 96.5083 32.8304 97.1076 32.3758C97.707 31.9418 98.358 31.5388 99.0606 31.1668C99.784 30.7948 100.466 30.4434 101.107 30.1128C101.396 29.3894 101.665 28.6144 101.913 27.7878C102.181 26.9404 102.44 26.0104 102.688 24.9978C101.902 26.1344 101.076 27.0851 100.208 27.8498C99.3603 28.5938 98.5026 28.9658 97.6346 28.9658C96.8906 28.9658 96.312 28.6868 95.8986 28.1288C95.506 27.5708 95.3096 26.8474 95.3096 25.9588C95.3096 24.8841 95.568 23.8611 96.0846 22.8898C96.622 21.9184 97.3143 21.0608 98.1616 20.3168C99.009 19.5728 99.908 18.9941 100.859 18.5808C101.809 18.1468 102.698 17.9298 103.525 17.9298C104.124 17.9298 104.548 18.0331 104.796 18.2398C105.064 18.4258 105.199 18.6531 105.199 18.9218C105.199 19.1078 105.147 19.2524 105.044 19.3558C104.94 19.4591 104.868 19.5211 104.827 19.5418C104.723 19.3764 104.568 19.2628 104.362 19.2008C104.155 19.1181 103.897 19.0768 103.587 19.0768C102.781 19.0768 101.995 19.3144 101.231 19.7898C100.487 20.2651 99.8253 20.8748 99.2466 21.6188C98.668 22.3628 98.203 23.1378 97.8516 23.9438C97.521 24.7291 97.3556 25.4524 97.3556 26.1138C97.3556 26.6098 97.4486 26.9921 97.6346 27.2608C97.8413 27.5088 98.11 27.6328 98.4406 27.6328C99.04 27.6328 99.753 27.2401 100.58 26.4548C101.427 25.6488 102.243 24.6774 103.029 23.5408C103.091 23.2514 103.142 22.9931 103.184 22.7658C103.246 22.5384 103.318 22.2491 103.401 21.8978C103.463 21.6084 103.607 21.2778 103.835 20.9058C104.083 20.5131 104.465 20.3168 104.982 20.3168C105.085 20.3168 105.188 20.3271 105.292 20.3478C105.395 20.3478 105.509 20.3684 105.633 20.4098C105.633 20.7404 105.529 21.3501 105.323 22.2388C105.137 23.1068 104.858 24.1298 104.486 25.3078C104.134 26.4651 103.721 27.6638 103.246 28.9038C103.928 28.5731 104.589 28.1494 105.23 27.6328C105.891 27.1161 106.49 26.5271 107.028 25.8658C107.565 25.1838 107.989 24.4501 108.299 23.6648L108.702 23.9748C108.392 24.9048 107.896 25.7521 107.214 26.5168C106.532 27.2814 105.798 27.9428 105.013 28.5008C104.248 29.0588 103.545 29.4928 102.905 29.8028C102.326 31.1874 101.716 32.4481 101.076 33.5848C100.435 34.7421 99.7633 35.6618 99.0606 36.3438C98.3786 37.0258 97.645 37.3668 96.8596 37.3668ZM96.7666 36.3748C97.18 36.3748 97.738 35.9614 98.4406 35.1348C99.164 34.3288 99.939 32.9338 100.766 30.9498C99.939 31.3631 99.164 31.7868 98.4406 32.2208C97.738 32.6754 97.1593 33.1508 96.7046 33.6468C96.25 34.1428 96.0226 34.6904 96.0226 35.2898C96.0226 35.6204 96.095 35.8788 96.2396 36.0648C96.3843 36.2714 96.56 36.3748 96.7666 36.3748ZM109.218 30.1438C108.578 30.1438 108.04 29.9268 107.606 29.4928C107.152 29.0794 106.924 28.4388 106.924 27.5708C106.924 26.8268 107.09 26.0311 107.42 25.1838C107.751 24.3158 108.206 23.4684 108.784 22.6418C109.363 21.7944 110.014 21.0298 110.737 20.3478C111.481 19.6451 112.256 19.0871 113.062 18.6738C113.889 18.2604 114.705 18.0538 115.511 18.0538C116.317 18.0538 116.989 18.2708 117.526 18.7048C118.064 19.1181 118.332 19.6761 118.332 20.3788C118.332 20.8954 118.188 21.2468 117.898 21.4328C117.63 21.6188 117.268 21.7118 116.813 21.7118C116.855 21.5464 116.886 21.3708 116.906 21.1848C116.948 20.9781 116.968 20.7921 116.968 20.6268C116.968 20.1514 116.855 19.7484 116.627 19.4178C116.4 19.0664 116.007 18.8908 115.449 18.8908C114.871 18.8908 114.282 19.0974 113.682 19.5108C113.083 19.9034 112.504 20.4408 111.946 21.1228C111.388 21.7841 110.892 22.5074 110.458 23.2928C110.024 24.0781 109.683 24.8531 109.435 25.6178C109.187 26.3824 109.063 27.0644 109.063 27.6638C109.063 28.4698 109.342 28.8728 109.9 28.8728C110.376 28.8728 110.892 28.6558 111.45 28.2218C112.008 27.7671 112.577 27.1988 113.155 26.5168C113.755 25.8141 114.323 25.0908 114.86 24.3468C115.398 23.6028 115.873 22.9208 116.286 22.3008C116.369 22.1768 116.421 22.1148 116.441 22.1148C116.565 22.1354 116.72 22.1768 116.906 22.2388C117.113 22.3008 117.289 22.3834 117.433 22.4868C117.578 22.5901 117.65 22.7244 117.65 22.8898C117.65 23.0758 117.557 23.3341 117.371 23.6648C117.185 23.9748 116.979 24.3364 116.751 24.7498C116.524 25.1631 116.317 25.5868 116.131 26.0208C115.945 26.4341 115.852 26.8268 115.852 27.1988C115.852 27.5088 115.935 27.8188 116.1 28.1288C116.266 28.4181 116.534 28.5628 116.906 28.5628C117.464 28.5628 118.198 28.1598 119.107 27.3538C120.017 26.5271 120.936 25.2974 121.866 23.6648L122.176 23.9748C121.742 25.0908 121.184 26.0724 120.502 26.9198C119.82 27.7671 119.087 28.4284 118.301 28.9038C117.537 29.3791 116.782 29.6168 116.038 29.6168C115.274 29.6168 114.705 29.3894 114.333 28.9348C113.982 28.4801 113.806 27.9841 113.806 27.4468C113.806 27.3228 113.817 27.1884 113.837 27.0438C113.858 26.8784 113.879 26.7131 113.899 26.5478C113.011 27.7464 112.194 28.6454 111.45 29.2448C110.727 29.8441 109.983 30.1438 109.218 30.1438ZM123.464 29.4928C122.658 29.4928 122.059 29.2344 121.666 28.7178C121.274 28.2218 121.077 27.6121 121.077 26.8888C121.077 26.4134 121.16 25.8141 121.325 25.0908C121.511 24.3674 121.749 23.6131 122.038 22.8278C122.328 22.0218 122.658 21.2674 123.03 20.5648C123.423 19.8621 123.836 19.2938 124.27 18.8598C124.704 18.4051 125.128 18.1778 125.541 18.1778C125.727 18.1778 125.882 18.2398 126.006 18.3638C126.151 18.4671 126.223 18.6324 126.223 18.8598C126.223 19.1078 126.058 19.5108 125.727 20.0688C125.417 20.6268 125.045 21.2674 124.611 21.9908C124.177 22.7141 123.795 23.4788 123.464 24.2848C123.154 25.0701 122.999 25.8244 122.999 26.5478C122.999 27.2918 123.123 27.7878 123.371 28.0358C123.619 28.2838 124.002 28.4078 124.518 28.4078C125.221 28.4078 125.965 28.0564 126.75 27.3538C127.556 26.6511 128.404 25.4214 129.292 23.6648L129.571 23.9748C128.972 25.7521 128.104 27.1161 126.967 28.0668C125.851 29.0174 124.684 29.4928 123.464 29.4928ZM128.703 15.7908C128.393 15.7908 128.125 15.7184 127.897 15.5738C127.67 15.4291 127.556 15.1914 127.556 14.8608C127.556 14.4681 127.784 14.1271 128.238 13.8378C128.693 13.5484 129.148 13.4038 129.602 13.4038C129.892 13.4038 130.119 13.4658 130.284 13.5898C130.45 13.7138 130.532 13.9411 130.532 14.2718C130.532 14.6231 130.336 14.9641 129.943 15.2948C129.571 15.6254 129.158 15.7908 128.703 15.7908ZM124.239 15.1398C123.929 15.1398 123.661 15.0674 123.433 14.9228C123.206 14.7781 123.092 14.5404 123.092 14.2098C123.092 13.8171 123.32 13.4761 123.774 13.1868C124.229 12.8974 124.684 12.7528 125.138 12.7528C125.428 12.7528 125.655 12.8148 125.82 12.9388C125.986 13.0628 126.068 13.2901 126.068 13.6208C126.068 13.9721 125.872 14.3131 125.479 14.6438C125.107 14.9744 124.694 15.1398 124.239 15.1398ZM131.313 29.6168C130.425 29.6168 129.784 29.3068 129.391 28.6868C129.019 28.0874 128.833 27.3331 128.833 26.4238C128.833 25.4318 129.019 24.2538 129.391 22.8898C129.763 21.5258 130.249 20.0894 130.848 18.5808C131.468 17.0721 132.14 15.6048 132.863 14.1788C133.587 12.7321 134.31 11.4198 135.033 10.2418C135.757 9.06377 136.418 8.12343 137.017 7.42077C137.637 6.7181 138.123 6.36677 138.474 6.36677C138.702 6.36677 138.888 6.5011 139.032 6.76977C139.177 7.01777 139.291 7.32777 139.373 7.69977C139.456 8.0511 139.497 8.37143 139.497 8.66077C139.497 9.21877 139.353 9.95243 139.063 10.8618C138.795 11.7504 138.402 12.7528 137.885 13.8688C137.389 14.9641 136.79 16.0801 136.087 17.2168C135.405 18.3328 134.651 19.4074 133.824 20.4408C133.018 21.4741 132.161 22.3628 131.251 23.1068C131.127 23.6648 131.024 24.2124 130.941 24.7498C130.879 25.2664 130.848 25.7624 130.848 26.2378C130.848 27.0438 130.962 27.6431 131.189 28.0358C131.417 28.4284 131.758 28.6248 132.212 28.6248C132.77 28.6248 133.318 28.3768 133.855 27.8808C134.413 27.3848 134.93 26.7648 135.405 26.0208C135.901 25.2561 136.325 24.4708 136.676 23.6648L137.141 23.9128C136.315 25.6694 135.416 27.0644 134.444 28.0978C133.473 29.1104 132.429 29.6168 131.313 29.6168ZM131.53 22.0528C132.254 21.3294 132.956 20.5028 133.638 19.5728C134.32 18.6221 134.951 17.6404 135.529 16.6278C136.129 15.6151 136.656 14.6334 137.11 13.6828C137.565 12.7321 137.916 11.8848 138.164 11.1408C138.412 10.3761 138.536 9.7871 138.536 9.37377C138.536 9.1671 138.505 9.03277 138.443 8.97077C138.402 8.90877 138.361 8.87777 138.319 8.87777C138.154 8.87777 137.865 9.14643 137.451 9.68377C137.059 10.2004 136.594 10.9031 136.056 11.7918C135.519 12.6804 134.971 13.6931 134.413 14.8298C133.855 15.9664 133.318 17.1548 132.801 18.3948C132.305 19.6348 131.882 20.8541 131.53 22.0528Z" fill="#41220C"/>
<path d="M62.2379 46.6868V39.0608H59.2919V38.0468H66.2519V39.0608H63.3059V46.6868H62.2379ZM71.8212 46.6868V43.4408C71.8212 43.1328 71.7932 42.8368 71.7372 42.5528C71.6852 42.2688 71.5912 42.0148 71.4552 41.7908C71.3232 41.5628 71.1432 41.3828 70.9152 41.2508C70.6912 41.1188 70.4072 41.0528 70.0632 41.0528C69.7952 41.0528 69.5512 41.0988 69.3312 41.1908C69.1152 41.2788 68.9292 41.4148 68.7732 41.5988C68.6172 41.7828 68.4952 42.0148 68.4072 42.2948C68.3232 42.5708 68.2812 42.8968 68.2812 43.2728L67.5792 43.0568C67.5792 42.4288 67.6912 41.8908 67.9152 41.4428C68.1432 40.9908 68.4612 40.6448 68.8692 40.4048C69.2812 40.1608 69.7652 40.0388 70.3212 40.0388C70.7412 40.0388 71.0992 40.1048 71.3952 40.2368C71.6912 40.3688 71.9372 40.5448 72.1332 40.7648C72.3292 40.9808 72.4832 41.2248 72.5952 41.4968C72.7072 41.7648 72.7852 42.0388 72.8292 42.3188C72.8772 42.5948 72.9012 42.8568 72.9012 43.1048V46.6868H71.8212ZM67.2012 46.6868V38.0468H68.1612V42.8168H68.2812V46.6868H67.2012ZM77.7851 39.2168H76.9151L77.7011 37.2368H78.5711L77.7851 39.2168ZM77.2691 46.8668C76.6331 46.8668 76.0771 46.7268 75.6011 46.4468C75.1291 46.1628 74.7611 45.7688 74.4971 45.2648C74.2331 44.7568 74.1011 44.1648 74.1011 43.4888C74.1011 42.7808 74.2311 42.1688 74.4911 41.6528C74.7511 41.1328 75.1131 40.7328 75.5771 40.4528C76.0451 40.1688 76.5931 40.0268 77.2211 40.0268C77.8731 40.0268 78.4271 40.1768 78.8831 40.4768C79.3431 40.7768 79.6871 41.2048 79.9151 41.7608C80.1471 42.3168 80.2471 42.9788 80.2151 43.7468H79.1351V43.3628C79.1231 42.5668 78.9611 41.9728 78.6491 41.5808C78.3371 41.1848 77.8731 40.9868 77.2571 40.9868C76.5971 40.9868 76.0951 41.1988 75.7511 41.6228C75.4071 42.0468 75.2351 42.6548 75.2351 43.4468C75.2351 44.2108 75.4071 44.8028 75.7511 45.2228C76.0951 45.6428 76.5851 45.8528 77.2211 45.8528C77.6491 45.8528 78.0211 45.7548 78.3371 45.5588C78.6531 45.3628 78.9011 45.0808 79.0811 44.7128L80.1071 45.0668C79.8551 45.6388 79.4751 46.0828 78.9671 46.3988C78.4631 46.7108 77.8971 46.8668 77.2691 46.8668ZM74.8751 43.7468V42.8888H79.6631V43.7468H74.8751ZM81.5509 46.6868V40.2068H82.5049V41.7728L82.3489 41.5688C82.4249 41.3688 82.5229 41.1848 82.6429 41.0168C82.7669 40.8488 82.9049 40.7108 83.0569 40.6028C83.2249 40.4668 83.4149 40.3628 83.6269 40.2908C83.8389 40.2188 84.0549 40.1768 84.2749 40.1648C84.4949 40.1488 84.7009 40.1628 84.8929 40.2068V41.2088C84.6689 41.1488 84.4229 41.1328 84.1549 41.1608C83.8869 41.1888 83.6389 41.2868 83.4109 41.4548C83.2029 41.6028 83.0409 41.7828 82.9249 41.9948C82.8129 42.2068 82.7349 42.4368 82.6909 42.6848C82.6469 42.9288 82.6249 43.1788 82.6249 43.4348V46.6868H81.5509ZM87.6586 46.8668C87.1746 46.8668 86.7686 46.7788 86.4406 46.6028C86.1166 46.4228 85.8706 46.1868 85.7026 45.8948C85.5386 45.6028 85.4566 45.2828 85.4566 44.9348C85.4566 44.5948 85.5206 44.3008 85.6486 44.0528C85.7806 43.8008 85.9646 43.5928 86.2006 43.4288C86.4366 43.2608 86.7186 43.1288 87.0466 43.0328C87.3546 42.9488 87.6986 42.8768 88.0786 42.8168C88.4626 42.7528 88.8506 42.6948 89.2426 42.6428C89.6346 42.5908 90.0006 42.5408 90.3406 42.4928L89.9566 42.7148C89.9686 42.1388 89.8526 41.7128 89.6086 41.4368C89.3686 41.1608 88.9526 41.0228 88.3606 41.0228C87.9686 41.0228 87.6246 41.1128 87.3286 41.2928C87.0366 41.4688 86.8306 41.7568 86.7106 42.1568L85.6966 41.8508C85.8526 41.2828 86.1546 40.8368 86.6026 40.5128C87.0506 40.1888 87.6406 40.0268 88.3726 40.0268C88.9606 40.0268 89.4646 40.1328 89.8846 40.3448C90.3086 40.5528 90.6126 40.8688 90.7966 41.2928C90.8886 41.4928 90.9466 41.7108 90.9706 41.9468C90.9946 42.1788 91.0066 42.4228 91.0066 42.6788V46.6868H90.0586V45.1328L90.2806 45.2768C90.0366 45.8008 89.6946 46.1968 89.2546 46.4648C88.8186 46.7328 88.2866 46.8668 87.6586 46.8668ZM87.8206 45.9728C88.2046 45.9728 88.5366 45.9048 88.8166 45.7688C89.1006 45.6288 89.3286 45.4468 89.5006 45.2228C89.6726 44.9948 89.7846 44.7468 89.8366 44.4788C89.8966 44.2788 89.9286 44.0568 89.9326 43.8128C89.9406 43.5648 89.9446 43.3748 89.9446 43.2428L90.3166 43.4048C89.9686 43.4528 89.6266 43.4988 89.2906 43.5428C88.9546 43.5868 88.6366 43.6348 88.3366 43.6868C88.0366 43.7348 87.7666 43.7928 87.5266 43.8608C87.3506 43.9168 87.1846 43.9888 87.0286 44.0768C86.8766 44.1648 86.7526 44.2788 86.6566 44.4188C86.5646 44.5548 86.5186 44.7248 86.5186 44.9288C86.5186 45.1048 86.5626 45.2728 86.6506 45.4328C86.7426 45.5928 86.8826 45.7228 87.0706 45.8228C87.2626 45.9228 87.5126 45.9728 87.8206 45.9728ZM95.5426 46.8668C94.9346 46.8668 94.4226 46.7168 94.0066 46.4168C93.5906 46.1128 93.2746 45.7028 93.0586 45.1868C92.8466 44.6668 92.7406 44.0848 92.7406 43.4408C92.7406 42.7888 92.8466 42.2048 93.0586 41.6888C93.2746 41.1728 93.5906 40.7668 94.0066 40.4708C94.4266 40.1748 94.9406 40.0268 95.5486 40.0268C96.1486 40.0268 96.6646 40.1768 97.0966 40.4768C97.5326 40.7728 97.8666 41.1788 98.0986 41.6948C98.3306 42.2108 98.4466 42.7928 98.4466 43.4408C98.4466 44.0888 98.3306 44.6708 98.0986 45.1868C97.8666 45.7028 97.5326 46.1128 97.0966 46.4168C96.6646 46.7168 96.1466 46.8668 95.5426 46.8668ZM92.5606 49.5668V40.2068H93.5146V44.9768H93.6346V49.5668H92.5606ZM95.4106 45.8888C95.8386 45.8888 96.1926 45.7808 96.4726 45.5648C96.7526 45.3488 96.9626 45.0568 97.1026 44.6888C97.2426 44.3168 97.3126 43.9008 97.3126 43.4408C97.3126 42.9848 97.2426 42.5728 97.1026 42.2048C96.9666 41.8368 96.7546 41.5448 96.4666 41.3288C96.1826 41.1128 95.8206 41.0048 95.3806 41.0048C94.9606 41.0048 94.6126 41.1088 94.3366 41.3168C94.0606 41.5208 93.8546 41.8068 93.7186 42.1748C93.5826 42.5388 93.5146 42.9608 93.5146 43.4408C93.5146 43.9128 93.5806 44.3348 93.7126 44.7068C93.8486 45.0748 94.0566 45.3648 94.3366 45.5768C94.6166 45.7848 94.9746 45.8888 95.4106 45.8888ZM102.57 46.8668C101.934 46.8668 101.378 46.7268 100.902 46.4468C100.43 46.1628 100.062 45.7688 99.7979 45.2648C99.5339 44.7568 99.4019 44.1648 99.4019 43.4888C99.4019 42.7808 99.5319 42.1688 99.7919 41.6528C100.052 41.1328 100.414 40.7328 100.878 40.4528C101.346 40.1688 101.894 40.0268 102.522 40.0268C103.174 40.0268 103.728 40.1768 104.184 40.4768C104.644 40.7768 104.988 41.2048 105.216 41.7608C105.448 42.3168 105.548 42.9788 105.516 43.7468H104.436V43.3628C104.424 42.5668 104.262 41.9728 103.95 41.5808C103.638 41.1848 103.174 40.9868 102.558 40.9868C101.898 40.9868 101.396 41.1988 101.052 41.6228C100.708 42.0468 100.536 42.6548 100.536 43.4468C100.536 44.2108 100.708 44.8028 101.052 45.2228C101.396 45.6428 101.886 45.8528 102.522 45.8528C102.95 45.8528 103.322 45.7548 103.638 45.5588C103.954 45.3628 104.202 45.0808 104.382 44.7128L105.408 45.0668C105.156 45.6388 104.776 46.0828 104.268 46.3988C103.764 46.7108 103.198 46.8668 102.57 46.8668ZM100.176 43.7468V42.8888H104.964V43.7468H100.176ZM109.312 46.8548C108.896 46.8548 108.538 46.7888 108.238 46.6568C107.942 46.5248 107.696 46.3488 107.5 46.1288C107.304 45.9088 107.15 45.6648 107.038 45.3968C106.926 45.1288 106.846 44.8548 106.798 44.5748C106.754 44.2948 106.732 44.0328 106.732 43.7888V40.2068H107.812V43.4528C107.812 43.7568 107.84 44.0508 107.896 44.3348C107.952 44.6188 108.046 44.8748 108.178 45.1028C108.314 45.3308 108.494 45.5108 108.718 45.6428C108.946 45.7748 109.23 45.8408 109.57 45.8408C109.838 45.8408 110.082 45.7948 110.302 45.7028C110.522 45.6108 110.71 45.4748 110.866 45.2948C111.022 45.1108 111.142 44.8788 111.226 44.5988C111.31 44.3188 111.352 43.9928 111.352 43.6208L112.054 43.8368C112.054 44.4608 111.94 44.9988 111.712 45.4508C111.488 45.9028 111.17 46.2508 110.758 46.4948C110.35 46.7348 109.868 46.8548 109.312 46.8548ZM111.472 46.6868V44.9528H111.352V40.2068H112.426V46.6868H111.472ZM117.724 46.6868C117.34 46.7628 116.96 46.7928 116.584 46.7768C116.212 46.7648 115.88 46.6908 115.588 46.5548C115.296 46.4148 115.074 46.1988 114.922 45.9068C114.794 45.6508 114.724 45.3928 114.712 45.1328C114.704 44.8688 114.7 44.5708 114.7 44.2388V38.4068H115.768V44.1908C115.768 44.4548 115.77 44.6808 115.774 44.8688C115.782 45.0568 115.824 45.2188 115.9 45.3548C116.044 45.6108 116.272 45.7608 116.584 45.8048C116.9 45.8488 117.28 45.8368 117.724 45.7688V46.6868ZM113.386 41.0888V40.2068H117.724V41.0888H113.386ZM121.578 46.8668C120.942 46.8668 120.386 46.7268 119.91 46.4468C119.438 46.1628 119.07 45.7688 118.806 45.2648C118.542 44.7568 118.41 44.1648 118.41 43.4888C118.41 42.7808 118.54 42.1688 118.8 41.6528C119.06 41.1328 119.422 40.7328 119.886 40.4528C120.354 40.1688 120.902 40.0268 121.53 40.0268C122.182 40.0268 122.736 40.1768 123.192 40.4768C123.652 40.7768 123.996 41.2048 124.224 41.7608C124.456 42.3168 124.556 42.9788 124.524 43.7468H123.444V43.3628C123.432 42.5668 123.27 41.9728 122.958 41.5808C122.646 41.1848 122.182 40.9868 121.566 40.9868C120.906 40.9868 120.404 41.1988 120.06 41.6228C119.716 42.0468 119.544 42.6548 119.544 43.4468C119.544 44.2108 119.716 44.8028 120.06 45.2228C120.404 45.6428 120.894 45.8528 121.53 45.8528C121.958 45.8528 122.33 45.7548 122.646 45.5588C122.962 45.3628 123.21 45.0808 123.39 44.7128L124.416 45.0668C124.164 45.6388 123.784 46.0828 123.276 46.3988C122.772 46.7108 122.206 46.8668 121.578 46.8668ZM119.184 43.7468V42.8888H123.972V43.7468H119.184Z" fill="#321906"/>
<defs>
<linearGradient id="paint0_linear_51_111" x1="26.1719" y1="37.187" x2="1.29083" y2="1.60383" gradientUnits="userSpaceOnUse">
<stop stop-color="#623B1E"/>
<stop offset="0.48" stop-color="#A47659"/>
<stop offset="0.82" stop-color="#CE9B7D"/>
<stop offset="1" stop-color="#DEAA8C"/>
</linearGradient>
</defs>
</svg>
