<svg width="152" height="53" viewBox="0 0 152 53" fill="none" xmlns="http://www.w3.org/2000/svg">
<g clip-path="url(#clip0_51_111)">
<path fill-rule="evenodd" clip-rule="evenodd" d="M46.1723 38.8919C42.0284 45.6415 34.5781 50.1435 26.0759 50.1435C17.5737 50.1435 10.1234 45.6415 5.97951 38.8919H46.1723ZM46.7497 37.8978L26.584 3.03218C39.3632 3.30246 49.6392 13.7442 49.6392 26.5852C49.6392 30.6849 48.5917 34.5401 46.7497 37.8978ZM25.5688 3.03216C12.7891 3.30194 2.51266 13.7439 2.51266 26.5852C2.51266 30.6853 3.56031 34.5408 5.4026 37.8987L25.5688 3.03216ZM50.6792 26.5852C50.6792 40.1705 39.6639 51.1835 26.0759 51.1835C12.4879 51.1835 1.47266 40.1705 1.47266 26.5852C1.47266 12.9999 12.4879 1.98682 26.0759 1.98682C39.6639 1.98682 50.6792 12.9999 50.6792 26.5852ZM6.63107 37.8519L26.0764 4.23176L45.5217 37.8519H6.63107Z" fill="url(#paint0_linear_51_111)"/>
<path fill-rule="evenodd" clip-rule="evenodd" d="M15.7724 26.6869C15.7724 32.2812 20.3645 36.8269 26.0424 36.8269C31.7203 36.8269 36.3124 32.2812 36.3124 26.6869C36.3124 21.0927 31.7203 16.5469 26.0424 16.5469C20.3645 16.5469 15.7724 21.0927 15.7724 26.6869ZM26.0424 37.8669C19.802 37.8669 14.7324 32.8674 14.7324 26.6869C14.7324 20.5065 19.802 15.5069 26.0424 15.5069C32.2828 15.5069 37.3524 20.5065 37.3524 26.6869C37.3524 32.8674 32.2828 37.8669 26.0424 37.8669Z" fill="#7A0081"/>
<path d="M25.6918 16.0269C28.45 16.0269 32.0953 17.15 34.0457 19.1492C35.9961 21.1483 37.0918 23.8597 37.0918 26.6869C37.0918 29.5141 35.9961 32.2255 34.0457 34.2247C32.0953 36.2238 28.45 37.3469 25.6918 37.3469C27.5174 36.2666 29.0334 34.7127 30.0874 32.8415C31.1414 30.9703 31.6962 28.8476 31.6962 26.6869C31.6962 24.5262 31.1414 22.4036 30.0874 20.5324C29.0334 18.6611 27.5174 17.1073 25.6918 16.0269Z" fill="#7A0081"/>
<path fill-rule="evenodd" clip-rule="evenodd" d="M26.0206 51.1834L26.0205 38.7166L27.0605 38.7166L27.0606 51.1834L26.0206 51.1834Z" fill="#7A0081"/>
<path fill-rule="evenodd" clip-rule="evenodd" d="M31.1646 50.4008L27.7325 37.3467L28.7383 37.0823L32.1705 50.1363L31.1646 50.4008Z" fill="#7A0081"/>
<path fill-rule="evenodd" clip-rule="evenodd" d="M36.8137 48.6809L30.7973 36.5951L29.8662 37.0584L35.8826 49.1442L36.8137 48.6809Z" fill="#7A0081"/>
<path fill-rule="evenodd" clip-rule="evenodd" d="M40.3348 46.5434L31.6329 36.0468L32.4336 35.3831L41.1354 45.8796L40.3348 46.5434Z" fill="#7A0081"/>
<path fill-rule="evenodd" clip-rule="evenodd" d="M21.8236 50.4008L25.2558 37.3467L24.25 37.0823L20.8178 50.1363L21.8236 50.4008Z" fill="#7A0081"/>
<path fill-rule="evenodd" clip-rule="evenodd" d="M16.1727 48.6809L22.189 36.5951L23.1201 37.0584L17.1038 49.1442L16.1727 48.6809Z" fill="#7A0081"/>
<path fill-rule="evenodd" clip-rule="evenodd" d="M12.653 46.5433L21.0953 36.3067L20.293 35.645L11.8507 45.8816L12.653 46.5433Z" fill="#7A0081"/>
<path d="M149.341 8.17749V26.5535C149.341 27.391 149.401 27.9713 149.522 28.2942C149.583 28.4355 149.664 28.5616 149.765 28.6726C149.876 28.7735 149.992 28.8643 150.113 28.9451C150.355 29.0662 150.839 29.1267 151.566 29.1267V29.6868H144.785V29.1267C145.441 29.1267 145.875 29.0662 146.086 28.9451C146.278 28.8341 146.465 28.6171 146.646 28.2942C146.768 27.9713 146.828 27.391 146.828 26.5535V13.9749C146.828 12.3905 146.798 11.4268 146.737 11.0837C146.657 10.7104 146.535 10.4631 146.374 10.342C146.223 10.2209 146.021 10.1604 145.769 10.1604C145.647 10.1604 145.501 10.1755 145.33 10.2058C145.168 10.2361 144.986 10.2916 144.785 10.3723L144.527 9.84253L148.66 8.17749H149.341Z" fill="#7A0081"/>
<path d="M140.713 15.428V26.5535C140.713 27.4213 140.773 28.0015 140.895 28.2942C141.046 28.5667 141.233 28.7836 141.455 28.9451C141.727 29.0662 142.181 29.1267 142.817 29.1267V29.6868H136.096V29.1267C136.792 29.1267 137.247 29.0662 137.458 28.9451C137.65 28.8341 137.837 28.6171 138.019 28.2942C138.14 27.9713 138.2 27.391 138.2 26.5535V21.2253C138.2 20.4685 138.19 19.8429 138.17 19.3484C138.16 18.8539 138.13 18.4957 138.079 18.2737C138.019 17.9508 137.908 17.7288 137.746 17.6077C137.585 17.4765 137.373 17.4109 137.11 17.4109C136.969 17.4109 136.813 17.4311 136.641 17.4714C136.48 17.5118 136.298 17.5723 136.096 17.6531L135.869 17.1082L140.062 15.428H140.713ZM142 9.44897C142.232 9.44897 142.444 9.49438 142.635 9.58521C142.837 9.66593 143.014 9.78198 143.165 9.93335C143.316 10.0847 143.432 10.2613 143.513 10.4631C143.604 10.6549 143.649 10.8617 143.649 11.0837C143.649 11.3158 143.604 11.5328 143.513 11.7346C143.432 11.9364 143.316 12.113 143.165 12.2644C143.014 12.4057 142.837 12.5217 142.635 12.6125C142.444 12.6933 142.232 12.7336 142 12.7336C141.778 12.7336 141.566 12.6933 141.364 12.6125C141.172 12.5217 141 12.4057 140.849 12.2644C140.698 12.113 140.577 11.9364 140.486 11.7346C140.405 11.5328 140.365 11.3158 140.365 11.0837C140.365 10.8617 140.405 10.6549 140.486 10.4631C140.577 10.2613 140.698 10.0847 140.849 9.93335C141 9.78198 141.172 9.66593 141.364 9.58521C141.566 9.49438 141.778 9.44897 142 9.44897ZM136.671 9.44897C136.893 9.44897 137.1 9.49438 137.292 9.58521C137.494 9.66593 137.67 9.78198 137.822 9.93335C137.973 10.0847 138.089 10.2613 138.17 10.4631C138.261 10.6549 138.306 10.8617 138.306 11.0837C138.306 11.5479 138.145 11.9415 137.822 12.2644C137.509 12.5772 137.125 12.7336 136.671 12.7336C136.449 12.7336 136.237 12.6933 136.036 12.6125C135.834 12.5217 135.657 12.4057 135.506 12.2644C135.354 12.113 135.233 11.9364 135.143 11.7346C135.062 11.5328 135.021 11.3158 135.021 11.0837C135.021 10.8617 135.062 10.6549 135.143 10.4631C135.233 10.2613 135.349 10.0847 135.491 9.93335C135.642 9.78198 135.819 9.66593 136.021 9.58521C136.222 9.49438 136.439 9.44897 136.671 9.44897Z" fill="#7A0081"/>
<path d="M130.042 27.7039C129.315 28.2488 128.73 28.6827 128.286 29.0056C127.842 29.3184 127.529 29.5152 127.348 29.5959C126.823 29.8381 126.243 29.9592 125.607 29.9592C124.618 29.9592 123.821 29.6414 123.215 29.0056C122.903 28.6827 122.675 28.3043 122.534 27.8704C122.393 27.4364 122.322 26.947 122.322 26.4021C122.322 26.059 122.358 25.7462 122.428 25.4636C122.499 25.171 122.605 24.8935 122.746 24.6311C123.16 23.9449 123.886 23.3041 124.926 22.7087C125.44 22.3959 126.122 22.0579 126.969 21.6946C127.817 21.3313 128.841 20.9377 130.042 20.5139V19.9539C130.042 19.2677 129.981 18.6874 129.86 18.2131C129.739 17.7389 129.573 17.3705 129.361 17.1082C129.139 16.8559 128.871 16.6641 128.559 16.533C128.256 16.3917 127.893 16.321 127.469 16.321C127.146 16.321 126.858 16.3665 126.606 16.4573C126.354 16.5481 126.132 16.6793 125.94 16.8508C125.758 17.0224 125.612 17.2091 125.501 17.4109C125.4 17.6026 125.35 17.8095 125.35 18.0315L125.38 18.8943C125.38 19.3686 125.264 19.7319 125.032 19.9841C124.81 20.2364 124.507 20.3625 124.124 20.3625C123.74 20.3625 123.432 20.2314 123.2 19.969C122.968 19.7066 122.852 19.3484 122.852 18.8943C122.852 18.0063 123.296 17.2141 124.184 16.5178C124.638 16.1344 125.173 15.8569 125.789 15.6853C126.404 15.5138 127.105 15.428 127.893 15.428C128.518 15.428 129.083 15.4784 129.588 15.5793C130.103 15.6702 130.552 15.8266 130.935 16.0486C131.541 16.3614 131.974 16.8458 132.237 17.5017C132.328 17.7237 132.398 18.0517 132.449 18.4856C132.499 18.9195 132.524 19.4796 132.524 20.1658V24.8884C132.524 25.5444 132.529 26.0741 132.54 26.4778C132.56 26.8814 132.585 27.1539 132.615 27.2952C132.666 27.5878 132.746 27.7846 132.857 27.8855C132.968 27.9864 133.105 28.0369 133.266 28.0369C133.407 28.0369 133.539 28.0066 133.66 27.946C133.771 27.8653 133.927 27.7392 134.129 27.5676C134.331 27.3961 134.588 27.1539 134.901 26.8411V27.7039C134.326 28.4506 133.771 29.0157 133.236 29.3992C132.711 29.7725 132.181 29.9592 131.646 29.9592C131.162 29.9592 130.774 29.7877 130.481 29.4446C130.188 29.1015 130.042 28.5212 130.042 27.7039ZM130.042 21.407C129.255 21.7198 128.619 21.9872 128.135 22.2092C127.65 22.4211 127.292 22.5876 127.06 22.7087C126.273 23.1628 125.708 23.6321 125.365 24.1165C125.032 24.5907 124.865 25.1155 124.865 25.6907C124.865 26.4172 125.082 27.0278 125.516 27.5222C125.96 27.9965 126.455 28.2336 127 28.2336C127.766 28.2336 128.781 27.724 130.042 26.7048V21.407Z" fill="#7A0081"/>
<path d="M110.379 24.6311C109.521 24.2073 108.865 23.6321 108.411 22.9055C107.967 22.1689 107.745 21.3515 107.745 20.4534C107.745 19.081 108.265 17.8902 109.304 16.8811C110.333 15.9124 111.655 15.428 113.27 15.428C113.936 15.428 114.552 15.5087 115.117 15.6702C115.692 15.8215 116.222 16.0587 116.706 16.3816H119.658C119.87 16.3816 120.036 16.3816 120.157 16.3816C120.288 16.3816 120.369 16.3917 120.399 16.4119C120.47 16.4522 120.521 16.4976 120.551 16.5481C120.611 16.6389 120.642 16.8004 120.642 17.0325C120.642 17.2948 120.611 17.4714 120.551 17.5623C120.551 17.6127 120.5 17.6531 120.399 17.6833C120.369 17.7035 120.288 17.7237 120.157 17.7439C120.036 17.754 119.87 17.759 119.658 17.759H117.856C118.411 18.4654 118.689 19.3938 118.689 20.5442C118.689 21.8258 118.194 22.9307 117.206 23.8591C116.186 24.7673 114.864 25.2214 113.24 25.2214C112.897 25.2214 112.549 25.2013 112.195 25.1609C111.842 25.1104 111.484 25.0297 111.121 24.9187C110.677 25.3022 110.374 25.6352 110.212 25.9177C110.061 26.2003 109.985 26.4425 109.985 26.6443C109.985 26.836 110.066 27.0126 110.228 27.1741C110.399 27.3254 110.732 27.4415 111.227 27.5222C111.368 27.5424 111.61 27.5575 111.953 27.5676C112.296 27.5777 112.755 27.5929 113.331 27.613C114.37 27.6433 115.223 27.6736 115.889 27.7039C116.555 27.7341 117.044 27.7745 117.357 27.825C117.831 27.8855 118.26 28.0066 118.644 28.1882C119.027 28.3699 119.35 28.5969 119.612 28.8694C119.885 29.1418 120.092 29.4547 120.233 29.8079C120.384 30.1611 120.46 30.5445 120.46 30.9583C120.46 32.0885 119.92 33.1632 118.84 34.1824C117.286 35.6456 115.243 36.3772 112.71 36.3772C111.731 36.3772 110.828 36.2662 110 36.0442C109.183 35.8323 108.431 35.4993 107.745 35.0452C106.998 34.5608 106.625 34.0461 106.625 33.5012C106.625 33.3801 106.64 33.254 106.67 33.1228C106.701 33.0017 106.741 32.8806 106.792 32.7595C106.882 32.5678 107.014 32.3407 107.185 32.0784C107.357 31.816 107.574 31.5234 107.836 31.2004C107.886 31.15 108.038 30.9885 108.29 30.7161C108.542 30.4436 108.911 30.0601 109.395 29.5657C108.86 29.2528 108.487 28.9753 108.275 28.7332C108.073 28.4809 107.972 28.1983 107.972 27.8855C107.972 27.7139 108.002 27.5222 108.063 27.3103C108.124 27.0984 108.224 26.8764 108.366 26.6443C108.527 26.4122 108.769 26.1296 109.092 25.7966C109.425 25.4636 109.854 25.0751 110.379 24.6311ZM113.013 16.1394C112.266 16.1394 111.635 16.4371 111.121 17.0325C110.626 17.6379 110.379 18.5512 110.379 19.7722C110.379 21.3464 110.722 22.5826 111.408 23.4807C111.953 24.1467 112.624 24.4797 113.421 24.4797C113.805 24.4797 114.153 24.4091 114.466 24.2678C114.789 24.1265 115.061 23.9096 115.283 23.6169C115.515 23.3243 115.697 22.956 115.828 22.512C115.959 22.0579 116.025 21.523 116.025 20.9075C116.025 19.3232 115.682 18.0668 114.996 17.1384C114.471 16.4724 113.81 16.1394 113.013 16.1394ZM110.228 29.6868C109.279 30.706 108.805 31.594 108.805 32.3508C108.805 32.8453 109.092 33.2691 109.667 33.6223C110.707 34.248 112.165 34.5608 114.042 34.5608C115.879 34.5608 117.211 34.2379 118.038 33.592C118.906 32.9361 119.34 32.255 119.34 31.5486C119.34 31.0138 119.093 30.6404 118.598 30.4285C118.063 30.2266 117.019 30.0955 115.465 30.0349C114.335 29.9945 113.336 29.9441 112.468 29.8835C111.6 29.8331 110.853 29.7675 110.228 29.6868Z" fill="#7A0081"/>
<path d="M101.569 8.17749C101.993 8.17749 102.351 8.32381 102.644 8.61646C102.937 8.9091 103.083 9.26733 103.083 9.69116C103.083 9.90308 103.043 10.1049 102.962 10.2966C102.881 10.4783 102.77 10.6397 102.629 10.781C102.498 10.9223 102.341 11.0333 102.16 11.114C101.978 11.1947 101.781 11.2351 101.569 11.2351C101.357 11.2351 101.156 11.1947 100.964 11.114C100.782 11.0333 100.621 10.9223 100.479 10.781C100.338 10.6397 100.227 10.4783 100.146 10.2966C100.066 10.1049 100.025 9.90308 100.025 9.69116C100.025 9.47925 100.066 9.28247 100.146 9.10083C100.227 8.91919 100.333 8.76278 100.464 8.63159C100.606 8.49032 100.772 8.37931 100.964 8.29858C101.156 8.21785 101.357 8.17749 101.569 8.17749ZM102.841 15.428V26.5535C102.841 26.9874 102.851 27.3507 102.871 27.6433C102.901 27.936 102.942 28.1529 102.992 28.2942C103.144 28.5667 103.33 28.7836 103.552 28.9451C103.825 29.0662 104.279 29.1267 104.915 29.1267V29.6868H98.1938V29.1267C98.8901 29.1267 99.3442 29.0662 99.5562 28.9451C99.7479 28.8341 99.9346 28.6171 100.116 28.2942C100.237 27.9713 100.298 27.391 100.298 26.5535V21.2253C100.298 20.4685 100.288 19.8429 100.268 19.3484C100.257 18.8539 100.227 18.4957 100.177 18.2737C100.116 17.9508 100.005 17.7288 99.8438 17.6077C99.6823 17.4765 99.4704 17.4109 99.208 17.4109C99.0667 17.4109 98.9103 17.4311 98.7388 17.4714C98.5773 17.5118 98.3957 17.5723 98.1938 17.6531L97.9668 17.1082L102.16 15.428H102.841Z" fill="#7A0081"/>
<path d="M86.3423 18.2131C87.6743 16.3564 89.1224 15.428 90.6865 15.428C92.1296 15.428 93.3708 16.0385 94.4102 17.2595C95.4596 18.4604 95.9844 20.1103 95.9844 22.2092C95.9844 24.6917 95.172 26.6796 93.5474 28.1731C92.1447 29.4749 90.5806 30.1257 88.855 30.1257C87.2404 30.1257 85.5703 29.5354 83.8447 28.3547V14.0051C83.8447 12.4309 83.7993 11.4571 83.7085 11.0837C83.6479 10.7104 83.5369 10.4631 83.3755 10.342C83.214 10.2209 83.0173 10.1604 82.7852 10.1604C82.4723 10.1604 82.109 10.231 81.6953 10.3723L81.5137 9.84253L85.6611 8.17749H86.3423V18.2131ZM86.3423 27.4919C86.8569 27.9864 87.3867 28.3648 87.9316 28.6272C88.4867 28.8795 89.0518 29.0056 89.627 29.0056C90.5553 29.0056 91.403 28.5011 92.1699 27.4919C92.9772 26.4727 93.3809 25.0045 93.3809 23.0872C93.3809 21.3111 92.9772 19.9438 92.1699 18.9851C91.7865 18.5209 91.3677 18.1677 90.9136 17.9255C90.4696 17.6833 89.9902 17.5623 89.4756 17.5623C89.2132 17.5623 88.9508 17.5976 88.6885 17.6682C88.4261 17.7288 88.1637 17.8297 87.9014 17.9709C87.6794 18.0618 87.4422 18.2131 87.1899 18.425C86.9377 18.637 86.6551 18.8892 86.3423 19.1819V27.4919Z" fill="#7A0081"/>
<path d="M73.3701 22.7996H65.4082L64.0005 26.054C63.6776 26.8512 63.5161 27.4415 63.5161 27.825C63.5161 27.9965 63.5514 28.1479 63.6221 28.2791C63.6927 28.4102 63.7987 28.5364 63.9399 28.6575C64.1014 28.7887 64.3385 28.8896 64.6514 28.9602C64.9743 29.0208 65.3779 29.0763 65.8623 29.1267V29.6868H59.4141V29.1267C60.2718 28.9753 60.8319 28.7786 61.0942 28.5364C61.3465 28.2841 61.6139 27.9208 61.8965 27.4465C62.1891 26.9622 62.4919 26.3466 62.8047 25.5999L70.0249 8.70728H70.5547L77.6841 25.7815C77.9767 26.4677 78.2492 27.0328 78.5015 27.4768C78.7537 27.9208 78.9959 28.2437 79.228 28.4456C79.7124 28.8391 80.3734 29.0662 81.2109 29.1267V29.6868H73.1279V29.1267C73.5316 29.1065 73.8646 29.0611 74.127 28.9905C74.3994 28.9198 74.6113 28.829 74.7627 28.718C74.9242 28.607 75.0352 28.4809 75.0957 28.3396C75.1663 28.1882 75.2017 28.0268 75.2017 27.8552C75.2017 27.6332 75.1512 27.3507 75.0503 27.0076C74.9595 26.6544 74.8132 26.2457 74.6113 25.7815L73.3701 22.7996ZM72.9312 21.6946L69.4648 13.4148L65.8623 21.6946H72.9312Z" fill="#7A0081"/>
<path d="M121.576 46.8669C120.94 46.8669 120.384 46.7269 119.908 46.4469C119.436 46.1629 119.068 45.7689 118.804 45.2649C118.54 44.7569 118.408 44.1649 118.408 43.4889C118.408 42.7809 118.538 42.1689 118.798 41.6529C119.058 41.1329 119.42 40.7329 119.884 40.4529C120.352 40.1689 120.9 40.0269 121.528 40.0269C122.18 40.0269 122.734 40.1769 123.19 40.4769C123.65 40.7769 123.994 41.2049 124.222 41.7609C124.454 42.3169 124.554 42.9789 124.522 43.7469H123.442V43.3629C123.43 42.5669 123.268 41.9729 122.956 41.5809C122.644 41.1849 122.18 40.9869 121.564 40.9869C120.904 40.9869 120.402 41.1989 120.058 41.6229C119.714 42.0469 119.542 42.6549 119.542 43.4469C119.542 44.2109 119.714 44.8029 120.058 45.2229C120.402 45.6429 120.892 45.8529 121.528 45.8529C121.956 45.8529 122.328 45.7549 122.644 45.5589C122.96 45.3629 123.208 45.0809 123.388 44.7129L124.414 45.0669C124.162 45.6389 123.782 46.0829 123.274 46.3989C122.77 46.7109 122.204 46.8669 121.576 46.8669ZM119.182 43.7469V42.8889H123.97V43.7469H119.182Z" fill="#7A0081"/>
<path d="M117.723 46.6867C117.339 46.7627 116.959 46.7927 116.583 46.7767C116.211 46.7647 115.879 46.6907 115.587 46.5547C115.295 46.4147 115.073 46.1987 114.921 45.9067C114.793 45.6507 114.723 45.3927 114.711 45.1327C114.703 44.8687 114.699 44.5707 114.699 44.2387V38.4067H115.767V44.1907C115.767 44.4547 115.769 44.6807 115.773 44.8687C115.781 45.0567 115.823 45.2187 115.899 45.3547C116.043 45.6107 116.271 45.7607 116.583 45.8047C116.899 45.8487 117.279 45.8367 117.723 45.7687V46.6867ZM113.385 41.0887V40.2067H117.723V41.0887H113.385Z" fill="#7A0081"/>
<path d="M109.31 46.8548C108.894 46.8548 108.536 46.7888 108.236 46.6568C107.94 46.5248 107.694 46.3488 107.498 46.1288C107.302 45.9088 107.148 45.6648 107.036 45.3968C106.924 45.1288 106.844 44.8548 106.796 44.5748C106.752 44.2948 106.73 44.0328 106.73 43.7888V40.2068H107.81V43.4528C107.81 43.7568 107.838 44.0508 107.894 44.3348C107.95 44.6188 108.044 44.8748 108.176 45.1028C108.312 45.3308 108.492 45.5108 108.716 45.6428C108.944 45.7748 109.228 45.8408 109.568 45.8408C109.836 45.8408 110.08 45.7948 110.3 45.7028C110.52 45.6108 110.708 45.4748 110.864 45.2948C111.02 45.1108 111.14 44.8788 111.224 44.5988C111.308 44.3188 111.35 43.9928 111.35 43.6208L112.052 43.8368C112.052 44.4608 111.938 44.9988 111.71 45.4508C111.486 45.9028 111.168 46.2508 110.756 46.4948C110.348 46.7348 109.866 46.8548 109.31 46.8548ZM111.47 46.6868V44.9528H111.35V40.2068H112.424V46.6868H111.47Z" fill="#7A0081"/>
<path d="M102.568 46.8669C101.932 46.8669 101.376 46.7269 100.9 46.4469C100.428 46.1629 100.06 45.7689 99.7964 45.2649C99.5324 44.7569 99.4004 44.1649 99.4004 43.4889C99.4004 42.7809 99.5304 42.1689 99.7904 41.6529C100.05 41.1329 100.412 40.7329 100.876 40.4529C101.344 40.1689 101.892 40.0269 102.52 40.0269C103.172 40.0269 103.726 40.1769 104.182 40.4769C104.642 40.7769 104.986 41.2049 105.214 41.7609C105.446 42.3169 105.546 42.9789 105.514 43.7469H104.434V43.3629C104.422 42.5669 104.26 41.9729 103.948 41.5809C103.636 41.1849 103.172 40.9869 102.556 40.9869C101.896 40.9869 101.394 41.1989 101.05 41.6229C100.706 42.0469 100.534 42.6549 100.534 43.4469C100.534 44.2109 100.706 44.8029 101.05 45.2229C101.394 45.6429 101.884 45.8529 102.52 45.8529C102.948 45.8529 103.32 45.7549 103.636 45.5589C103.952 45.3629 104.2 45.0809 104.38 44.7129L105.406 45.0669C105.154 45.6389 104.774 46.0829 104.266 46.3989C103.762 46.7109 103.196 46.8669 102.568 46.8669ZM100.174 43.7469V42.8889H104.962V43.7469H100.174Z" fill="#7A0081"/>
<path d="M95.5425 46.8669C94.9345 46.8669 94.4225 46.7169 94.0065 46.4169C93.5905 46.1129 93.2745 45.7029 93.0585 45.1869C92.8465 44.6669 92.7405 44.0849 92.7405 43.4409C92.7405 42.7889 92.8465 42.2049 93.0585 41.6889C93.2745 41.1729 93.5905 40.7669 94.0065 40.4709C94.4265 40.1749 94.9405 40.0269 95.5485 40.0269C96.1485 40.0269 96.6645 40.1769 97.0965 40.4769C97.5325 40.7729 97.8665 41.1789 98.0985 41.6949C98.3305 42.2109 98.4465 42.7929 98.4465 43.4409C98.4465 44.0889 98.3305 44.6709 98.0985 45.1869C97.8665 45.7029 97.5325 46.1129 97.0965 46.4169C96.6645 46.7169 96.1465 46.8669 95.5425 46.8669ZM92.5605 49.5669V40.2069H93.5145V44.9769H93.6345V49.5669H92.5605ZM95.4105 45.8889C95.8385 45.8889 96.1925 45.7809 96.4725 45.5649C96.7525 45.3489 96.9625 45.0569 97.1025 44.6889C97.2425 44.3169 97.3125 43.9009 97.3125 43.4409C97.3125 42.9849 97.2425 42.5729 97.1025 42.2049C96.9665 41.8369 96.7545 41.5449 96.4665 41.3289C96.1825 41.1129 95.8205 41.0049 95.3805 41.0049C94.9605 41.0049 94.6125 41.1089 94.3365 41.3169C94.0605 41.5209 93.8545 41.8069 93.7185 42.1749C93.5825 42.5389 93.5145 42.9609 93.5145 43.4409C93.5145 43.9129 93.5805 44.3349 93.7125 44.7069C93.8485 45.0749 94.0565 45.3649 94.3365 45.5769C94.6165 45.7849 94.9745 45.8889 95.4105 45.8889Z" fill="#7A0081"/>
<path d="M87.6571 46.8669C87.1731 46.8669 86.7671 46.7789 86.4391 46.6029C86.1151 46.4229 85.8691 46.1869 85.7011 45.8949C85.5371 45.6029 85.4551 45.2829 85.4551 44.9349C85.4551 44.5949 85.5191 44.3009 85.6471 44.0529C85.7791 43.8009 85.9631 43.5929 86.1991 43.4289C86.4351 43.2609 86.7171 43.1289 87.0451 43.0329C87.3531 42.9489 87.6971 42.8769 88.0771 42.8169C88.4611 42.7529 88.8491 42.6949 89.2411 42.6429C89.6331 42.5909 89.9991 42.5409 90.3391 42.4929L89.9551 42.7149C89.9671 42.1389 89.8511 41.7129 89.6071 41.4369C89.3671 41.1609 88.9511 41.0229 88.3591 41.0229C87.9671 41.0229 87.6231 41.1129 87.3271 41.2929C87.0351 41.4689 86.8291 41.7569 86.7091 42.1569L85.6951 41.8509C85.8511 41.2829 86.1531 40.8369 86.6011 40.5129C87.0491 40.1889 87.6391 40.0269 88.3711 40.0269C88.9591 40.0269 89.4631 40.1329 89.8831 40.3449C90.3071 40.5529 90.6111 40.8689 90.7951 41.2929C90.8871 41.4929 90.9451 41.7109 90.9691 41.9469C90.9931 42.1789 91.0051 42.4229 91.0051 42.6789V46.6869H90.0571V45.1329L90.2791 45.2769C90.0351 45.8009 89.6931 46.1969 89.2531 46.4649C88.8171 46.7329 88.2851 46.8669 87.6571 46.8669ZM87.8191 45.9729C88.2031 45.9729 88.5351 45.9049 88.8151 45.7689C89.0991 45.6289 89.3271 45.4469 89.4991 45.2229C89.6711 44.9949 89.7831 44.7469 89.8351 44.4789C89.8951 44.2789 89.9271 44.0569 89.9311 43.8129C89.9391 43.5649 89.9431 43.3749 89.9431 43.2429L90.3151 43.4049C89.9671 43.4529 89.6251 43.4989 89.2891 43.5429C88.9531 43.5869 88.6351 43.6349 88.3351 43.6869C88.0351 43.7349 87.7651 43.7929 87.5251 43.8609C87.3491 43.9169 87.1831 43.9889 87.0271 44.0769C86.8751 44.1649 86.7511 44.2789 86.6551 44.4189C86.5631 44.5549 86.5171 44.7249 86.5171 44.9289C86.5171 45.1049 86.5611 45.2729 86.6491 45.4329C86.7411 45.5929 86.8811 45.7229 87.0691 45.8229C87.2611 45.9229 87.5111 45.9729 87.8191 45.9729Z" fill="#7A0081"/>
<path d="M81.5508 46.6868V40.2068H82.5048V41.7728L82.3488 41.5688C82.4248 41.3688 82.5228 41.1848 82.6428 41.0168C82.7668 40.8488 82.9048 40.7108 83.0568 40.6028C83.2248 40.4668 83.4148 40.3628 83.6268 40.2908C83.8388 40.2188 84.0548 40.1768 84.2748 40.1648C84.4948 40.1488 84.7008 40.1628 84.8928 40.2068V41.2088C84.6688 41.1488 84.4228 41.1328 84.1548 41.1608C83.8868 41.1888 83.6388 41.2868 83.4108 41.4548C83.2028 41.6028 83.0408 41.7828 82.9248 41.9948C82.8128 42.2068 82.7348 42.4368 82.6908 42.6848C82.6468 42.9288 82.6248 43.1788 82.6248 43.4348V46.6868H81.5508Z" fill="#7A0081"/>
<path d="M77.7836 39.2168H76.9136L77.6996 37.2368H78.5696L77.7836 39.2168ZM77.2676 46.8668C76.6316 46.8668 76.0756 46.7268 75.5996 46.4468C75.1276 46.1628 74.7596 45.7688 74.4956 45.2648C74.2316 44.7568 74.0996 44.1648 74.0996 43.4888C74.0996 42.7808 74.2296 42.1688 74.4896 41.6528C74.7496 41.1328 75.1116 40.7328 75.5756 40.4528C76.0436 40.1688 76.5916 40.0268 77.2196 40.0268C77.8716 40.0268 78.4256 40.1768 78.8816 40.4768C79.3416 40.7768 79.6856 41.2048 79.9136 41.7608C80.1456 42.3168 80.2456 42.9788 80.2136 43.7468H79.1336V43.3628C79.1216 42.5668 78.9596 41.9728 78.6476 41.5808C78.3356 41.1848 77.8716 40.9868 77.2556 40.9868C76.5956 40.9868 76.0936 41.1988 75.7496 41.6228C75.4056 42.0468 75.2336 42.6548 75.2336 43.4468C75.2336 44.2108 75.4056 44.8028 75.7496 45.2228C76.0936 45.6428 76.5836 45.8528 77.2196 45.8528C77.6476 45.8528 78.0196 45.7548 78.3356 45.5588C78.6516 45.3628 78.8996 45.0808 79.0796 44.7128L80.1056 45.0668C79.8536 45.6388 79.4736 46.0828 78.9656 46.3988C78.4616 46.7108 77.8956 46.8668 77.2676 46.8668ZM74.8736 43.7468V42.8888H79.6616V43.7468H74.8736Z" fill="#7A0081"/>
<path d="M71.8212 46.6869V43.4409C71.8212 43.1329 71.7932 42.8369 71.7372 42.5529C71.6852 42.2689 71.5912 42.0149 71.4552 41.7909C71.3232 41.5629 71.1432 41.3829 70.9152 41.2509C70.6912 41.1189 70.4072 41.0529 70.0632 41.0529C69.7952 41.0529 69.5512 41.0989 69.3312 41.1909C69.1152 41.2789 68.9292 41.4149 68.7732 41.5989C68.6172 41.7829 68.4952 42.0149 68.4072 42.2949C68.3232 42.5709 68.2812 42.8969 68.2812 43.2729L67.5792 43.0569C67.5792 42.4289 67.6912 41.8909 67.9152 41.4429C68.1432 40.9909 68.4612 40.6449 68.8692 40.4049C69.2812 40.1609 69.7652 40.0389 70.3212 40.0389C70.7412 40.0389 71.0992 40.1049 71.3952 40.2369C71.6912 40.3689 71.9372 40.5449 72.1332 40.7649C72.3292 40.9809 72.4832 41.2249 72.5952 41.4969C72.7072 41.7649 72.7852 42.0389 72.8292 42.3189C72.8772 42.5949 72.9012 42.8569 72.9012 43.1049V46.6869H71.8212ZM67.2012 46.6869V38.0469H68.1612V42.8169H68.2812V46.6869H67.2012Z" fill="#7A0081"/>
<path d="M62.237 46.6869V39.0609H59.291V38.0469H66.251V39.0609H63.305V46.6869H62.237Z" fill="#7A0081"/>
</g>
<defs>
<linearGradient id="paint0_linear_51_111" x1="26.1719" y1="37.187" x2="1.29083" y2="1.60383" gradientUnits="userSpaceOnUse">
<stop stop-color="#7A0081"/>
<stop offset="0.54" stop-color="#CE7D7D"/>
<stop offset="1" stop-color="#DEAA8C"/>
</linearGradient>
<clipPath id="clip0_51_111">
<rect width="151" height="52" fill="white" transform="translate(0.171875 0.686768)"/>
</clipPath>
</defs>
</svg>
